<svg width="30" height="32" viewBox="0 0 30 32" fill="none" xmlns="http://www.w3.org/2000/svg">
<path d="M12.7031 4.435C12.7347 4.42348 12.7674 4.41196 12.799 4.40045C12.5025 4.50601 12.2127 4.63939 11.9344 4.79868L6.17112 8.12655C4.86799 8.87887 3.96789 10.1436 3.66274 11.582C3.66178 11.5859 3.66178 11.5897 3.66082 11.5926C3.64451 11.6703 3.62916 11.748 3.61572 11.8258C3.82971 6.58064 5.84006 4.4158 6.52041 3.82949L7.16813 3.45621L11.9354 0.703141C13.559 -0.23438 15.5598 -0.23438 17.1844 0.703141L21.0793 2.95147C20.232 2.65495 17.3523 1.99667 12.7031 4.43404V4.435Z" fill="#F89A1E"/>
<path d="M3.61574 11.8259C3.62918 11.7481 3.64453 11.6704 3.66084 11.5927C3.586 11.9449 3.54761 12.3066 3.54665 12.6732V19.328C3.54665 20.8326 4.1915 22.2442 5.28543 23.2277C5.28831 23.2306 5.29119 23.2325 5.29407 23.2354C5.35261 23.2882 5.4121 23.34 5.47351 23.3909C1.03732 20.5831 0.167929 17.76 0.000959797 16.8772H0V10.6245C0 8.74942 1.00086 7.01736 2.62544 6.07887L6.52043 3.82959C5.84008 4.4159 3.82973 6.58074 3.61574 11.8259Z" fill="#EE1C73"/>
<path d="M16.4167 27.5649C11.7675 30.0023 8.88776 29.344 8.04044 29.0475L7.39272 28.6732L2.6245 25.9211C1.00087 24.9836 0.000976562 23.2515 0.000976562 21.3755V16.877C0.167946 17.7598 1.03734 20.5829 5.47353 23.3907C5.44762 23.3686 5.42171 23.3475 5.3958 23.3245C5.63474 23.5288 5.89383 23.7131 6.17211 23.8733L11.9354 27.2012C13.2386 27.9545 14.7835 28.1003 16.1826 27.6465C16.1855 27.6445 16.1893 27.6436 16.1931 27.6426C16.268 27.6177 16.3428 27.5927 16.4167 27.5649Z" fill="url(#paint0_linear_253_4498)"/>
<path d="M25.5041 20.1743C25.2902 25.4194 23.2798 27.5843 22.5995 28.1706L21.9517 28.5439L17.1845 31.2969C15.5609 32.2345 13.5601 32.2345 11.9355 31.2969L8.04053 29.0486C8.88785 29.3451 11.7676 30.0034 16.4168 27.5661C16.3851 27.5776 16.3525 27.5891 16.3208 27.6006C16.6174 27.495 16.9072 27.3617 17.1854 27.2024L22.9488 23.8745C24.2519 23.1222 25.152 21.8574 25.4571 20.419C25.4581 20.4152 25.4581 20.4113 25.459 20.4085C25.4754 20.3307 25.4907 20.253 25.5041 20.1753V20.1743Z" fill="url(#paint1_linear_253_4498)"/>
<path d="M29.1189 10.6245V15.123C28.9519 14.2402 28.0825 11.4171 23.6463 8.60931C23.6722 8.63138 23.6981 8.6525 23.724 8.67553C23.4851 8.47113 23.226 8.28689 22.9477 8.12664L17.1844 4.79877C15.8813 4.04549 14.3364 3.89964 12.9373 4.35352C12.9344 4.35544 12.9305 4.3564 12.9267 4.35736C12.8519 4.38231 12.777 4.40726 12.7031 4.43509C17.3523 1.99772 20.2321 2.656 21.0794 2.95252L21.7271 3.32676L26.4953 6.07887C28.119 7.01639 29.1189 8.74846 29.1189 10.6245Z" fill="url(#paint2_linear_253_4498)"/>
<path d="M29.1198 15.1238V21.3755C29.1198 23.2506 28.1189 24.9827 26.4943 25.9211L22.5994 28.1704C23.2797 27.5841 25.2901 25.4193 25.504 20.1741C25.4906 20.2519 25.4753 20.3296 25.4589 20.4073C25.5338 20.0551 25.5722 19.6934 25.5731 19.3268V12.672C25.5731 11.1674 24.9283 9.75584 23.8344 8.77226C23.8315 8.76938 23.8286 8.76746 23.8257 8.76459C23.7672 8.71181 23.7077 8.65999 23.6463 8.60913C28.0825 11.4169 28.9519 14.24 29.1188 15.1228H29.1198V15.1238Z" fill="url(#paint3_linear_253_4498)"/>
<path d="M20.9113 20.866V22.9224H18.14L17.4693 22.1365L11.6503 15.3186L8.20825 11.2864V9.07739H10.85L11.6503 10.0159L17.4693 16.8338L20.9113 20.866Z" fill="#52C6E7"/>
<path d="M14.9955 13.9348L12.5543 16.377L11.6503 15.3186L8.20923 11.2864V9.07739H10.8491L11.6503 10.0159L14.9955 13.9348Z" fill="#EE1C73"/>
<path d="M11.6503 17.5315V22.9224H8.20825V13.4983L11.6503 17.5315Z" fill="#F89A1E"/>
<path d="M20.9113 9.07739V18.563L17.4692 14.5308V9.07739H20.9113Z" fill="#C1DB6C"/>
<path d="M16.5298 14.8446C16.5298 14.7774 16.5183 14.7103 16.4952 14.6431L16.0039 13.1999C15.9655 13.0886 15.9003 12.9945 15.8178 12.9235C15.7525 12.8448 15.6671 12.7805 15.5654 12.7393L13.1501 11.7701C13.1501 11.7701 13.1482 11.7701 13.1472 11.7691L12.4438 10.9448L9.90283 13.2718L11.5696 15.3158L15.2602 15.7284V16.4817C15.2602 16.8348 15.5462 17.1208 15.9003 17.1208C16.2544 17.1208 16.5394 16.8348 16.5394 16.4817V14.9569C16.5394 14.9185 16.5365 14.8811 16.5298 14.8446Z" fill="#EE1C73"/>
<path d="M16.5403 15.7448L14.2488 14.505C14.1989 14.4753 14.1433 14.4513 14.0838 14.4369L11.7731 13.8496C11.441 13.7652 11.1033 13.9657 11.0198 14.2977C10.9353 14.6298 11.1359 14.9675 11.4679 15.051L11.8671 15.1527C11.6589 15.194 11.4823 15.3504 11.4267 15.5692C11.3499 15.8734 11.5332 16.1824 11.8374 16.2592L12.1435 16.3369C11.9506 16.381 11.7875 16.5288 11.7356 16.7342L11.7251 16.7764C11.6512 17.0691 11.8278 17.3656 12.1204 17.4404L12.6233 17.568C12.3738 17.5728 12.1473 17.7417 12.083 17.9951C12.0062 18.2992 12.1895 18.6082 12.4937 18.685L14.2603 19.1341L15.1182 19.3797L16.262 20.7193L18.7608 18.3443L16.5403 15.7419V15.7448Z" fill="#52C6E7"/>
<path d="M15.956 14.5981H15.8437C15.5215 14.5981 15.2603 14.8594 15.2603 15.1816V16.8186C15.2603 17.1409 15.5215 17.4021 15.8437 17.4021H15.956C16.2782 17.4021 16.5394 17.1409 16.5394 16.8186V15.1816C16.5394 14.8594 16.2782 14.5981 15.956 14.5981Z" fill="#EE1C73"/>
<defs>
<linearGradient id="paint0_linear_253_4498" x1="-1.74932" y1="18.7079" x2="15.1491" y2="30.7786" gradientUnits="userSpaceOnUse">
<stop stop-color="#8688C4"/>
<stop offset="0.2" stop-color="#797BBB"/>
<stop offset="0.45" stop-color="#7274B5"/>
<stop offset="1" stop-color="#7072B4"/>
</linearGradient>
<linearGradient id="paint1_linear_253_4498" x1="11.6409" y1="30.4544" x2="23.1282" y2="24.8773" gradientUnits="userSpaceOnUse">
<stop stop-color="#5AC9EA"/>
<stop offset="0.55" stop-color="#58C8E9"/>
<stop offset="0.75" stop-color="#51C4E6"/>
<stop offset="0.89" stop-color="#45BFE2"/>
<stop offset="1" stop-color="#36B8DD"/>
</linearGradient>
<linearGradient id="paint2_linear_253_4498" x1="16.7564" y1="3.37954" x2="30.4076" y2="12.369" gradientUnits="userSpaceOnUse">
<stop stop-color="#F0CE3A"/>
<stop offset="0.07" stop-color="#F2D440"/>
<stop offset="0.29" stop-color="#F6E24F"/>
<stop offset="0.56" stop-color="#F9EA57"/>
<stop offset="1" stop-color="#FAED5A"/>
</linearGradient>
<linearGradient id="paint3_linear_253_4498" x1="26.1297" y1="15.2217" x2="25.7967" y2="27.0419" gradientUnits="userSpaceOnUse">
<stop stop-color="#9CCC55"/>
<stop offset="0.13" stop-color="#ACD25E"/>
<stop offset="0.3" stop-color="#B9D665"/>
<stop offset="0.52" stop-color="#C0D969"/>
<stop offset="1" stop-color="#C3DA6B"/>
</linearGradient>
</defs>
</svg>
